<?xml version="1.0" encoding="utf-8" ?>
<svg baseProfile="full" height="1024" version="1.1" width="1024" xmlns="http://www.w3.org/2000/svg" xmlns:ev="http://www.w3.org/2001/xml-events" xmlns:xlink="http://www.w3.org/1999/xlink"><defs /><polygon fill="black" points="356,618 356,774 399,774 399,618" /><polygon fill="black" points="761,614 760,615 756,615 755,616 749,616 748,617 745,617 744,618 742,618 741,619 739,619 738,620 736,620 735,621 734,621 733,622 732,622 731,623 730,623 729,624 728,624 727,625 726,625 724,627 723,627 721,629 720,629 716,633 715,633 710,638 710,639 705,644 705,645 703,647 703,648 702,649 702,650 700,652 700,653 699,654 699,656 698,657 698,658 697,659 697,660 696,661 696,663 695,664 695,666 694,667 694,670 693,671 693,675 692,676 692,681 691,682 691,710 692,711 692,716 693,717 693,720 694,721 694,724 695,725 695,727 696,728 696,730 697,731 697,732 698,733 698,735 699,736 699,737 700,738 700,739 702,741 702,742 703,743 703,744 705,746 705,747 718,760 719,760 721,762 722,762 725,765 726,765 727,766 728,766 729,767 730,767 731,768 732,768 733,769 734,769 735,770 736,770 737,771 739,771 740,772 742,772 743,773 745,773 746,774 749,774 750,775 755,775 756,776 785,776 786,775 789,775 790,774 793,774 794,773 796,773 797,772 800,772 801,771 802,771 803,770 804,770 805,769 806,769 807,768 808,768 809,767 810,767 811,766 812,766 813,765 814,765 816,763 817,763 820,760 821,760 826,755 827,755 834,748 834,747 838,743 837,742 836,742 835,741 834,741 832,739 831,739 829,737 828,737 827,736 826,736 824,734 823,734 821,732 820,732 819,731 818,731 816,729 815,729 813,727 812,727 811,726 810,726 809,725 803,731 802,731 799,734 798,734 795,737 794,737 793,738 792,738 790,740 788,740 787,741 786,741 785,742 784,742 783,743 779,743 778,744 761,744 760,743 757,743 756,742 755,742 754,741 752,741 750,739 749,739 747,737 746,737 739,730 739,729 737,727 737,726 736,725 736,724 735,723 735,722 734,721 734,719 733,718 733,715 732,714 732,710 731,709 731,705 732,704 842,704 842,689 841,688 842,687 842,684 841,683 841,678 840,677 840,671 839,670 839,668 838,667 838,664 837,663 837,661 836,660 836,658 835,657 835,656 834,655 834,653 833,652 833,651 831,649 831,648 830,647 830,646 828,644 828,643 825,640 825,639 816,630 815,630 812,627 811,627 809,625 808,625 807,624 806,624 805,623 804,623 803,622 802,622 801,621 800,621 799,620 798,620 797,619 795,619 794,618 792,618 791,617 788,617 787,616 783,616 782,615 766,615 765,614 764,615 762,615" /><polygon fill="black" points="512,614 511,615 507,615 506,616 503,616 502,617 500,617 499,618 498,618 497,619 496,619 495,620 494,620 493,621 492,621 491,622 490,622 489,623 488,623 485,626 484,626 480,630 479,630 475,634 475,635 474,636 473,635 473,618 431,618 431,774 475,774 475,674 476,673 476,670 477,669 477,667 478,666 478,665 479,664 479,663 481,661 481,660 485,656 486,656 488,654 490,654 491,653 492,653 493,652 497,652 498,651 509,651 510,652 512,652 513,653 515,653 516,654 517,654 524,661 524,662 525,663 525,665 526,666 526,667 527,668 527,671 528,672 528,774 572,774 572,675 573,674 573,670 574,669 574,667 575,666 575,665 576,664 576,663 577,662 577,661 583,655 584,655 586,653 587,653 588,652 591,652 592,651 594,651 595,650 607,650 608,651 611,651 612,652 613,652 614,653 615,653 617,655 618,655 619,656 619,657 620,657 621,658 621,659 622,660 622,661 623,662 623,663 624,664 624,666 625,667 625,671 626,672 625,673 625,675 626,676 626,773 669,773 668,772 668,679 669,678 668,677 668,671 669,670 668,669 669,668 668,667 668,656 667,655 667,653 666,652 666,649 665,648 665,646 664,645 664,643 663,642 663,641 662,640 662,639 661,638 661,637 659,635 659,634 657,632 657,631 651,625 650,625 648,623 647,623 645,621 644,621 643,620 642,620 641,619 640,619 639,618 637,618 636,617 635,617 634,616 631,616 630,615 626,615 625,614 605,614 604,615 600,615 599,616 596,616 595,617 593,617 592,618 590,618 589,619 588,619 587,620 586,620 585,621 584,621 583,622 582,622 581,623 580,623 578,625 577,625 575,627 574,627 567,634 567,635 563,639 562,638 562,637 561,636 561,635 559,633 559,632 549,622 548,622 546,620 545,620 544,619 543,619 542,618 541,618 540,617 538,617 537,616 535,616 534,615 531,615 530,614" /><polygon fill="black" points="242,570 242,617 241,618 213,618 213,648 241,648 242,649 241,650 241,719 242,720 242,732 243,733 242,734 243,735 243,739 244,740 244,742 245,743 245,745 246,746 246,748 247,749 247,750 248,751 248,752 250,754 250,755 252,757 252,758 259,765 260,765 262,767 263,767 264,768 265,768 266,769 267,769 268,770 269,770 270,771 271,771 272,772 275,772 276,773 278,773 279,774 284,774 285,775 294,775 295,776 308,776 309,775 319,775 320,774 323,774 324,773 325,774 325,736 324,737 323,737 322,738 319,738 318,739 315,739 314,740 309,740 308,741 303,741 302,740 298,740 297,739 296,739 295,738 294,738 288,732 288,731 287,730 287,729 286,728 286,726 285,725 285,718 284,717 285,716 284,715 284,714 285,713 284,712 284,649 285,648 325,648 325,618 285,618 284,617 284,571 285,570" /><polygon fill="black" points="370,557 369,558 368,558 367,559 366,559 365,560 364,560 362,562 361,562 361,563 358,566 358,567 357,568 357,569 356,570 356,573 355,574 355,583 356,584 356,587 357,588 357,589 358,590 358,591 365,598 366,598 367,599 369,599 370,600 372,600 373,601 381,601 382,600 385,600 386,599 387,599 388,598 389,598 391,596 392,596 393,595 393,594 396,591 396,590 397,589 397,588 398,587 398,586 399,585 399,572 398,571 398,569 396,567 396,566 390,560 389,560 388,559 387,559 386,558 385,558 384,557" /><polygon fill="black" points="707,327 706,328 705,328 703,330 702,330 698,334 697,334 691,340 690,340 685,345 684,345 680,349 679,349 674,354 673,354 668,359 667,359 661,365 660,365 653,372 652,372 647,377 646,377 639,384 638,384 636,386 633,386 632,385 629,385 628,384 621,384 620,385 617,385 616,386 614,386 613,387 612,387 611,388 609,386 608,386 606,384 605,384 602,381 601,381 600,380 599,380 597,378 596,378 594,376 593,376 590,373 589,373 588,372 587,372 585,370 584,370 582,368 581,368 579,366 578,366 576,364 575,364 573,362 572,362 571,361 570,361 567,358 566,358 565,357 564,357 562,355 561,355 560,354 553,354 552,355 551,355 550,356 549,356 545,360 545,361 544,362 544,363 543,364 543,374 545,376 545,377 546,378 547,378 549,380 550,380 552,382 553,382 554,383 555,383 558,386 559,386 561,388 562,388 564,390 565,390 567,392 568,392 569,393 570,393 572,395 573,395 575,397 576,397 578,399 579,399 581,401 582,401 584,403 585,403 588,406 589,406 590,407 591,407 593,409 594,409 597,412 597,419 598,420 598,423 599,424 599,426 600,427 600,428 602,430 602,431 608,437 609,437 611,439 612,439 613,440 615,440 616,441 619,441 620,442 631,442 632,441 634,441 635,440 636,440 637,439 638,439 639,438 640,438 647,431 647,430 649,428 649,427 650,426 650,425 651,424 651,422 652,421 652,412 653,411 652,410 652,407 657,402 658,402 662,398 663,398 668,393 669,393 675,387 676,387 683,380 684,380 721,343 721,341 722,340 722,337 721,336 721,334 720,333 720,332 718,330 717,330 715,328 714,328 713,327" /><polygon fill="black" points="614,241 613,242 604,242 603,243 597,243 596,244 592,244 591,245 588,245 587,246 584,246 583,247 581,247 580,248 579,248 578,249 576,249 575,250 574,250 571,253 570,253 570,254 569,255 568,255 568,256 567,257 567,258 565,260 565,261 564,262 564,263 563,264 563,265 562,266 562,267 560,269 560,271 558,273 558,274 557,275 557,277 556,278 556,279 555,280 555,281 554,282 554,283 553,284 554,285 554,286 558,286 560,284 561,284 562,283 563,283 564,282 565,282 566,281 568,281 569,280 570,280 571,279 573,279 574,278 575,278 576,277 578,277 579,276 581,276 582,275 584,275 585,274 588,274 589,273 592,273 593,272 595,272 596,271 600,271 601,270 605,270 606,269 614,269 615,270 615,273 614,274 614,275 615,276 615,280 614,281 614,298 615,299 615,301 617,303 619,303 620,304 625,304 626,305 627,305 628,304 631,304 632,303 633,303 634,302 634,300 635,299 635,270 636,269 640,269 641,270 647,270 648,271 649,270 650,271 653,271 654,272 658,272 659,273 663,273 664,274 666,274 667,275 669,275 670,276 672,276 673,277 675,277 676,278 677,278 678,279 680,279 681,280 682,280 683,281 684,281 685,282 686,282 687,283 688,283 689,284 691,284 692,285 693,285 695,287 696,287 697,288 698,288 700,290 701,290 702,291 703,291 705,293 706,293 708,295 709,295 713,299 714,299 719,304 720,304 730,314 730,315 738,323 738,324 742,328 742,329 744,331 744,332 746,334 746,335 748,337 748,338 750,340 750,341 751,342 751,343 753,345 753,346 754,347 754,349 756,351 756,352 757,353 757,354 758,355 758,357 759,358 759,359 760,360 760,361 761,362 761,364 762,365 762,367 763,368 763,370 764,371 764,374 765,375 765,378 766,379 766,382 767,383 767,387 768,388 768,392 769,393 769,401 770,402 769,403 769,404 768,405 746,405 745,406 743,406 742,407 741,407 738,410 738,411 737,412 737,419 738,420 738,422 741,425 742,425 743,426 769,426 770,427 769,428 769,435 768,436 769,437 768,438 768,440 767,441 767,446 766,447 766,450 765,451 765,454 764,455 764,457 763,458 763,459 762,460 762,463 761,464 761,466 760,467 760,468 759,469 759,470 758,471 758,472 757,473 757,475 756,476 756,477 755,478 755,479 754,480 754,481 753,482 753,483 751,485 751,486 750,487 750,488 748,490 748,491 747,492 747,493 745,495 745,496 742,499 742,500 739,503 739,504 733,510 733,511 723,521 722,521 715,528 714,528 710,532 709,532 707,534 706,534 704,536 703,536 701,538 700,538 698,540 697,540 696,541 695,541 694,542 693,542 692,543 691,543 690,544 689,544 688,545 687,545 686,546 685,546 684,547 683,547 682,548 680,548 679,549 678,549 677,550 675,550 674,551 672,551 671,552 669,552 668,553 666,553 665,554 662,554 661,555 659,555 658,556 654,556 653,557 649,557 648,558 643,558 642,559 636,559 635,558 635,532 634,531 634,529 632,527 631,527 630,526 629,526 628,525 622,525 621,526 619,526 618,527 617,527 615,529 615,530 614,531 615,532 614,533 614,555 615,556 615,558 614,559 607,559 606,558 602,558 601,557 596,557 595,556 591,556 590,555 587,555 586,554 584,554 583,553 580,553 579,552 577,552 576,551 574,551 573,550 572,550 571,549 569,549 568,548 567,548 566,547 565,547 564,546 562,546 561,545 560,545 559,544 558,544 557,543 556,543 555,542 554,542 552,540 551,540 550,539 549,539 547,537 546,537 545,536 544,536 542,534 541,534 538,531 537,531 534,528 533,528 525,520 524,520 517,513 517,512 511,506 511,505 507,501 507,500 505,498 505,497 502,494 502,493 500,491 500,490 499,489 499,488 498,487 498,486 496,484 496,483 495,482 495,481 494,480 494,479 493,478 493,476 491,474 491,472 490,471 490,470 489,469 489,467 488,466 488,465 487,464 487,462 486,461 486,459 485,458 485,456 484,455 484,452 483,451 483,448 482,447 482,444 481,443 481,438 480,437 480,434 479,433 479,429 482,426 498,426 499,427 505,427 506,426 508,426 508,425 510,423 510,414 509,413 509,410 508,409 508,408 506,406 505,406 504,405 480,405 479,406 477,406 476,407 475,407 473,409 473,410 472,411 472,412 471,413 471,414 470,415 470,416 469,417 469,418 468,419 468,420 466,422 466,423 465,424 465,425 463,427 463,428 462,429 462,430 460,432 460,433 458,435 458,436 456,438 456,440 455,441 455,443 456,444 456,453 457,454 457,457 458,458 458,461 459,462 459,464 460,465 460,467 461,468 461,470 462,471 462,473 463,474 463,476 464,477 464,479 465,480 465,481 466,482 466,483 467,484 467,486 468,487 468,488 469,489 469,490 470,491 470,492 471,493 471,494 472,495 472,496 474,498 474,499 475,500 475,501 476,502 476,503 478,505 478,506 480,508 480,509 482,511 482,512 484,514 484,515 487,518 487,519 490,522 490,523 495,528 495,529 496,529 498,531 498,532 509,543 510,543 515,548 516,548 519,551 520,551 523,554 524,554 526,556 527,556 530,559 531,559 533,561 534,561 535,562 536,562 537,563 538,563 540,565 541,565 542,566 543,566 544,567 545,567 546,568 547,568 548,569 549,569 550,570 551,570 552,571 553,571 554,572 555,572 556,573 558,573 559,574 560,574 561,575 563,575 564,576 566,576 567,577 569,577 570,578 572,578 573,579 575,579 576,580 578,580 579,581 582,581 583,582 586,582 587,583 591,583 592,584 598,584 599,585 604,585 605,586 615,586 616,587 630,587 631,586 640,586 641,585 647,585 648,584 653,584 654,583 658,583 659,582 663,582 664,581 667,581 668,580 671,580 672,579 674,579 675,578 677,578 678,577 680,577 681,576 683,576 684,575 686,575 687,574 688,574 689,573 691,573 692,572 693,572 694,571 695,571 696,570 697,570 698,569 699,569 700,568 701,568 702,567 703,567 704,566 705,566 706,565 707,565 708,564 709,564 711,562 712,562 713,561 714,561 716,559 717,559 718,558 719,558 721,556 722,556 725,553 726,553 728,551 729,551 734,546 735,546 740,541 741,541 750,532 750,531 751,530 752,530 752,529 757,524 757,523 761,519 761,518 764,515 764,514 767,511 767,510 768,509 768,508 770,506 770,505 772,503 772,502 773,501 773,500 775,498 775,497 776,496 776,495 777,494 777,493 778,492 778,491 779,490 779,489 780,488 780,487 781,486 781,485 782,484 782,482 783,481 783,480 784,479 784,478 785,477 785,475 786,474 786,472 787,471 787,469 788,468 788,466 789,465 789,463 790,462 790,460 791,459 791,455 792,454 792,451 793,450 793,446 794,445 794,442 795,441 794,440 794,439 795,438 795,431 796,430 796,422 797,421 796,420 797,419 797,408 796,407 797,406 796,405 796,397 795,396 795,389 794,388 794,382 793,381 793,378 792,377 792,373 791,372 791,369 790,368 790,366 789,365 789,362 788,361 788,359 787,358 787,357 786,356 786,354 785,353 785,351 784,350 784,349 783,348 783,346 782,345 782,344 781,343 781,342 780,341 780,340 779,339 779,338 778,337 778,336 777,335 777,334 776,333 776,332 775,331 775,330 774,329 774,328 772,326 772,325 771,324 771,323 769,321 769,320 767,318 767,317 765,315 765,314 762,311 762,310 759,307 759,306 754,301 754,300 738,284 737,284 732,279 731,279 727,275 726,275 724,273 723,273 721,271 720,271 718,269 717,269 715,267 714,267 713,266 712,266 710,264 709,264 708,263 707,263 706,262 705,262 704,261 703,261 701,259 699,259 697,257 695,257 694,256 693,256 692,255 690,255 689,254 688,254 687,253 686,253 685,252 683,252 682,251 680,251 679,250 678,250 677,249 674,249 673,248 671,248 670,247 668,247 667,246 664,246 663,245 658,245 657,244 654,244 653,243 649,243 648,242 639,242 638,241" /><polygon fill="black" points="544,195 543,196 540,196 539,197 535,197 534,198 531,198 530,199 528,199 527,200 525,200 524,201 523,201 522,202 521,202 520,203 519,203 518,204 517,204 516,205 515,205 514,206 513,206 511,208 510,208 508,210 507,210 502,215 501,215 488,228 488,229 482,235 482,236 478,240 478,241 473,246 473,247 468,252 468,253 463,258 463,259 459,263 459,264 454,269 454,270 451,273 451,274 445,280 445,281 440,286 440,287 436,291 436,292 431,297 431,298 426,303 426,304 421,309 421,310 417,314 417,315 412,320 412,321 408,325 408,326 403,331 403,332 398,337 398,338 393,343 393,344 389,348 389,349 384,354 384,355 379,360 379,361 374,366 374,367 370,371 370,372 365,377 365,378 355,388 353,388 352,389 347,389 346,388 345,388 339,382 339,381 337,379 337,378 336,377 336,376 335,375 335,374 333,372 333,371 332,370 332,369 329,366 329,365 328,364 328,363 326,361 326,360 324,358 324,357 323,356 323,355 321,353 321,352 320,351 320,350 318,348 318,347 317,346 317,345 315,343 315,342 314,341 314,340 312,338 312,337 310,335 310,334 308,332 308,331 306,329 306,328 305,327 305,326 303,324 303,323 301,321 301,320 300,319 300,318 298,316 298,315 296,313 296,312 295,311 295,310 294,309 294,308 292,306 292,305 291,304 291,303 289,301 289,300 288,299 288,298 286,296 286,295 285,294 285,293 281,289 280,289 277,286 276,286 275,285 273,285 272,284 268,284 267,283 266,284 254,284 253,283 205,283 204,284 201,284 200,285 198,285 197,286 196,286 194,288 193,288 192,289 191,289 188,292 188,294 187,295 187,303 188,304 188,305 189,306 189,307 190,308 190,309 191,310 191,311 193,313 193,314 194,315 194,316 195,317 195,318 197,320 197,321 198,322 198,323 200,325 200,326 201,327 201,328 202,329 202,330 204,332 204,333 205,334 205,335 207,337 207,338 208,339 208,340 209,341 209,342 210,343 210,344 212,346 212,347 213,348 213,349 215,351 215,352 216,353 216,354 218,356 218,357 219,358 219,359 220,360 220,361 221,362 221,363 223,365 223,366 224,367 224,368 225,369 225,370 227,372 227,373 228,374 228,375 230,377 230,378 232,380 232,381 233,382 233,383 234,384 234,385 236,387 236,388 237,389 237,390 238,391 238,392 239,393 239,394 241,396 241,397 242,398 242,399 244,401 244,402 245,403 245,404 247,406 247,407 248,408 248,409 249,410 249,411 251,413 251,414 252,415 252,416 253,417 253,418 255,420 255,421 256,422 256,423 258,425 258,426 259,427 259,428 261,430 261,431 262,432 262,433 263,434 263,435 264,436 264,437 266,439 266,440 267,441 267,442 269,444 269,445 270,446 270,447 271,448 271,449 273,451 273,452 274,453 274,454 275,455 275,456 277,458 277,459 278,460 278,461 280,463 280,464 281,465 281,466 282,467 282,468 284,470 284,471 285,472 285,473 286,474 286,475 288,477 288,478 289,479 289,480 290,481 290,482 292,484 292,485 293,486 293,487 294,488 294,489 295,490 295,492 297,494 297,496 299,498 299,499 302,502 302,503 305,506 305,507 307,509 307,510 308,511 308,512 309,513 309,514 310,515 310,516 311,517 311,518 313,520 313,521 316,524 317,524 321,528 322,528 324,530 325,530 327,532 329,532 330,533 331,533 332,534 334,534 335,535 340,535 341,536 350,536 351,535 354,535 355,534 357,534 358,533 360,533 361,532 362,532 363,531 364,531 365,530 366,530 368,528 369,528 371,526 372,526 380,518 380,517 383,514 383,513 384,512 384,511 386,509 386,508 387,507 387,506 388,505 388,504 390,502 390,501 392,499 392,498 393,497 393,496 394,495 394,494 396,492 396,491 398,489 398,488 399,487 399,486 401,484 401,483 402,482 402,481 404,479 404,478 406,476 406,475 408,473 408,472 409,471 409,470 411,468 411,467 413,465 413,464 414,463 414,462 415,461 415,460 416,459 416,458 418,456 418,455 419,454 419,453 421,451 421,450 423,448 423,447 424,446 424,445 426,443 426,442 427,441 427,440 429,438 429,437 431,435 431,434 432,433 432,432 434,430 434,429 435,428 435,427 437,425 437,424 438,423 438,422 439,421 439,420 441,418 441,417 443,415 443,414 444,413 444,412 446,410 446,409 448,407 448,406 449,405 449,404 451,402 451,401 452,400 452,399 454,397 454,396 456,394 456,393 457,392 457,391 459,389 459,388 460,387 460,386 462,384 462,383 464,381 464,380 466,378 466,377 467,376 467,375 469,373 469,372 471,370 471,369 472,368 472,367 474,365 474,364 475,363 475,362 477,360 477,359 478,358 478,357 480,355 480,354 481,353 481,352 483,350 483,349 485,347 485,346 486,345 486,344 488,342 488,341 489,340 489,339 491,337 491,336 493,334 493,333 494,332 494,331 495,330 495,329 497,327 497,326 499,324 499,323 501,321 501,320 503,318 503,317 505,315 505,314 507,312 507,311 508,310 508,309 509,308 509,307 510,306 510,305 512,303 512,302 513,301 513,300 515,298 515,297 516,296 516,295 518,293 518,292 520,290 520,289 521,288 521,287 523,285 523,284 524,283 524,282 526,280 526,279 528,277 528,276 530,274 530,273 531,272 531,271 533,269 533,268 535,266 535,265 536,264 536,263 538,261 538,260 539,259 539,258 541,256 541,255 543,253 543,252 544,251 544,250 546,248 546,247 547,246 547,245 549,243 549,242 551,240 551,239 553,237 553,236 554,235 554,234 556,232 556,231 558,229 558,228 560,226 560,225 561,224 561,223 563,221 563,220 565,218 565,217 567,215 567,214 569,212 569,211 570,210 570,209 571,208 571,207 572,206 572,205 571,204 571,202 568,199 567,199 566,198 565,198 564,197 562,197 561,196 555,196 554,195" /></svg>